<svg id="a4495e90-75c1-4005-b163-6d2a8855febe" data-name="Capa 1" xmlns="http://www.w3.org/2000/svg" viewBox="0 0 31.09 48"><path d="M23.4,23.65a2,2,0,0,1-.31.78,1.85,1.85,0,0,1-.62.56,6.32,6.32,0,0,1-1.36.64c-.93.32-1.91.64-2.95,1s-2.07.75-2.94,1c-1.1.37-2.13.69-3.12,1.07A9.39,9.39,0,0,0,10,30a9.13,9.13,0,0,0-1.52,1.82A5.54,5.54,0,0,0,7.8,34.6c0,2.24.54,3.95,1.63,5s3.11,1.65,6.11,1.65,5.13-.58,6.22-1.76a7,7,0,0,0,1.63-5V23.65ZM15.54,0c5.35,0,9.28,1,11.78,3.1a9.58,9.58,0,0,1,3.77,7.74V37.21a12.61,12.61,0,0,1-.6,3.53,7.69,7.69,0,0,1-2.35,3.52,13,13,0,0,1-4.74,2.67A24.42,24.42,0,0,1,15.54,48a24.4,24.4,0,0,1-7.85-1.07A13.08,13.08,0,0,1,3,44.26,8.58,8.58,0,0,1,.6,40.74,12.61,12.61,0,0,1,0,37.22V33a11,11,0,0,1,1.8-6.14,9.79,9.79,0,0,1,5.07-3.95c1.09-.38,2.35-.75,3.76-1.23s2.73-1,4-1.39,2.46-.86,3.43-1.23c.6-.24,1.2-.45,1.8-.64l1-.48A4.41,4.41,0,0,0,22,17a7.35,7.35,0,0,0,1-1.44,4,4,0,0,0,.43-1.87V12a4.36,4.36,0,0,0-.38-1.81,4.28,4.28,0,0,0-1.26-1.77A6.68,6.68,0,0,0,19.42,7.1a12.67,12.67,0,0,0-3.77-.48c-3.05,0-5.07.59-6.16,1.82a6.55,6.55,0,0,0-1.58,3.89.56.56,0,0,1-.6.54L.66,13a.6.6,0,0,1-.42-.18.56.56,0,0,1-.18-.42V10.84A10.07,10.07,0,0,1,.93,6.62,8.84,8.84,0,0,1,3.71,3.2,14,14,0,0,1,8.57.91a22,22,0,0,1,7-.91Z" fill="#0a3871" fill-rule="evenodd"/></svg>